<mxfile host="Electron" agent="Mozilla/5.0 (Windows NT 10.0; Win64; x64) AppleWebKit/537.36 (KHTML, like Gecko) draw.io/27.0.9 Chrome/134.0.6998.205 Electron/35.4.0 Safari/537.36" version="27.0.9">
  <diagram name="第 1 页" id="qm_UaE9VWOTM7Cq8sIX_">
    <mxGraphModel dx="1410" dy="825" grid="1" gridSize="10" guides="1" tooltips="1" connect="1" arrows="1" fold="1" page="1" pageScale="1" pageWidth="827" pageHeight="1169" math="0" shadow="0">
      <root>
        <mxCell id="0" />
        <mxCell id="1" parent="0" />
        <mxCell id="j6OtvXP3q4_B_2WLdvcW-4" style="edgeStyle=orthogonalEdgeStyle;rounded=0;orthogonalLoop=1;jettySize=auto;html=1;exitX=0.5;exitY=0;exitDx=0;exitDy=0;entryX=0.5;entryY=1;entryDx=0;entryDy=0;" edge="1" parent="1" source="j6OtvXP3q4_B_2WLdvcW-1" target="j6OtvXP3q4_B_2WLdvcW-2">
          <mxGeometry relative="1" as="geometry" />
        </mxCell>
        <mxCell id="j6OtvXP3q4_B_2WLdvcW-1" value="展示层" style="rounded=1;whiteSpace=wrap;html=1;" vertex="1" parent="1">
          <mxGeometry x="294" y="525" width="120" height="60" as="geometry" />
        </mxCell>
        <mxCell id="j6OtvXP3q4_B_2WLdvcW-5" style="edgeStyle=orthogonalEdgeStyle;rounded=0;orthogonalLoop=1;jettySize=auto;html=1;exitX=0.5;exitY=0;exitDx=0;exitDy=0;entryX=0.5;entryY=1;entryDx=0;entryDy=0;" edge="1" parent="1" source="j6OtvXP3q4_B_2WLdvcW-2" target="j6OtvXP3q4_B_2WLdvcW-3">
          <mxGeometry relative="1" as="geometry" />
        </mxCell>
        <mxCell id="j6OtvXP3q4_B_2WLdvcW-2" value="用例层" style="rounded=1;whiteSpace=wrap;html=1;" vertex="1" parent="1">
          <mxGeometry x="294" y="410" width="120" height="60" as="geometry" />
        </mxCell>
        <mxCell id="j6OtvXP3q4_B_2WLdvcW-3" value="领域层" style="rounded=1;whiteSpace=wrap;html=1;" vertex="1" parent="1">
          <mxGeometry x="220" y="130" width="120" height="60" as="geometry" />
        </mxCell>
        <mxCell id="j6OtvXP3q4_B_2WLdvcW-8" style="edgeStyle=orthogonalEdgeStyle;rounded=0;orthogonalLoop=1;jettySize=auto;html=1;exitX=0.5;exitY=0;exitDx=0;exitDy=0;entryX=0.5;entryY=1;entryDx=0;entryDy=0;" edge="1" parent="1" source="j6OtvXP3q4_B_2WLdvcW-6" target="j6OtvXP3q4_B_2WLdvcW-3">
          <mxGeometry relative="1" as="geometry" />
        </mxCell>
        <mxCell id="j6OtvXP3q4_B_2WLdvcW-6" value="基础设施层" style="rounded=1;whiteSpace=wrap;html=1;" vertex="1" parent="1">
          <mxGeometry x="140" y="410" width="120" height="60" as="geometry" />
        </mxCell>
      </root>
    </mxGraphModel>
  </diagram>
</mxfile>
